<svg xmlns="http://www.w3.org/2000/svg" version="1.1" xmlns:xlink="http://www.w3.org/1999/xlink" xmlns:svgjs="http://svgjs.dev/svgjs" width="1500" height="1500" viewBox="0 0 1500 1500"><rect width="1500" height="1500" fill="#ffffff"></rect><g transform="matrix(0.6666666666666666,0,0,0.6666666666666666,250.16994382022466,585.3290744783268)"><svg viewBox="0 0 356 117" data-background-color="#883d1a" preserveAspectRatio="xMidYMid meet" height="492" width="1500" xmlns="http://www.w3.org/2000/svg" xmlns:xlink="http://www.w3.org/1999/xlink"><g id="tight-bounds" transform="matrix(1,0,0,1,-0.06049999999996203,0.23932404279196362)"><svg viewBox="0 0 356.12052 116.52135191441607" height="116.52135191441607" width="356.12052"><g><svg viewBox="0 0 356.12052 116.52135191441607" height="116.52135191441607" width="356.12052"><g><svg viewBox="0 0 356.12052 116.52135191441607" height="116.52135191441607" width="356.12052"><g><path d="M0 116.521v-116.521h356.121v116.521z" fill="#000000" stroke="transparent" stroke-width="0" rx="0%" data-fill-palette-color="tertiary"></path><path d="M3.283 113.238v-109.955h349.554v109.955z" fill="#ffffff" stroke="transparent" stroke-width="0" rx="0%" data-fill-palette-color="quaternary"></path><path d="M9.85 106.671v-96.821h336.421v96.821z" fill="#000000" stroke="transparent" stroke-width="0" data-fill-palette-color="tertiary"></path></g><g transform="matrix(1,0,0,1,19.69974,19.69974)" id="textblocktransform"><svg viewBox="0 0 316.72104 77.12187191441608" height="77.12187191441608" width="316.72104" id="textblock"><g><svg viewBox="0 0 316.72104 53.97101415012942" height="53.97101415012942" width="316.72104"><g transform="matrix(1,0,0,1,0,0)"><svg width="316.72104" viewBox="2.3 -39 231.78 39.5" height="53.97101415012942" data-palette-color="#883d1a"><path d="M15.1-27.5L15.1-27.5Q18-27.5 20.13-26.53 22.25-25.55 23.43-23.8 24.6-22.05 24.6-19.7L24.6-19.7Q24.6-17.85 23.83-16.85 23.05-15.85 21.5-15.85L21.5-15.85Q20.1-15.85 19.28-16.65 18.45-17.45 18.45-18.8L18.45-18.8Q18.45-20.05 19.13-20.95 19.8-21.85 20.95-22.2L20.95-22.2Q20.2-23.65 18.82-24.3 17.45-24.95 15.4-24.95L15.4-24.95Q11.3-24.95 9.43-22.28 7.55-19.6 7.55-13.95L7.55-13.95Q7.55-11.5 7.88-9.73 8.2-7.95 8.85-6.7L8.85-6.7Q9.85-4.85 11.5-3.85 13.15-2.85 15.4-2.85L15.4-2.85Q17.7-2.85 19.8-3.85 21.9-4.85 23.4-6.7L23.4-6.7 24.9-5.5Q22.9-2.45 20.3-0.98 17.7 0.5 14.2 0.5L14.2 0.5Q10.7 0.5 8.13-0.93 5.55-2.35 4.1-5.1L4.1-5.1Q2.3-8.45 2.3-13.2L2.3-13.2Q2.3-17.55 3.88-20.75 5.45-23.95 8.35-25.73 11.25-27.5 15.1-27.5ZM53.6-13.75L53.6-13.75Q53.6-10.5 52.62-7.58 51.65-4.65 49.9-2.75L49.9-2.75Q48.4-1.1 46.2-0.3 44 0.5 41.2 0.5L41.2 0.5Q38.45 0.5 36.3-0.28 34.15-1.05 32.65-2.65L32.65-2.65Q30.95-4.5 30.02-7.23 29.1-9.95 29.1-13.15L29.1-13.15Q29.1-16.4 30.05-19.38 31-22.35 32.8-24.25L32.8-24.25Q34.4-25.95 36.52-26.73 38.65-27.5 41.4-27.5L41.4-27.5Q44.15-27.5 46.35-26.73 48.55-25.95 50.05-24.35L50.05-24.35Q51.8-22.5 52.7-19.73 53.6-16.95 53.6-13.75ZM34.45-13.7L34.45-13.7Q34.45-10.65 34.92-8.43 35.4-6.2 36.25-4.75L36.25-4.75Q37.1-3.5 38.27-2.8 39.45-2.1 41.35-2.1L41.35-2.1Q44.8-2.1 46.5-4.45L46.5-4.45Q47.4-5.75 47.82-8.05 48.25-10.35 48.25-13.35L48.25-13.35Q48.25-16.35 47.77-18.6 47.3-20.85 46.45-22.25L46.45-22.25Q45.65-23.55 44.42-24.23 43.2-24.9 41.3-24.9L41.3-24.9Q37.8-24.9 36.25-22.6L36.25-22.6Q34.45-19.8 34.45-13.7ZM57.3-2.05L61.15-3 61.15-36 57.3-36.95 57.3-39 66-39 66-3 69.84-2.05 69.84 0 57.3 0 57.3-2.05ZM72.69-2.05L76.54-3 76.54-36 72.69-36.95 72.69-39 81.39-39 81.39-3 85.24-2.05 85.24 0 72.69 0 72.69-2.05ZM111.54-13.2L111.54-13.2 94.09-13.2Q94.09-9.55 95.09-7.15L95.09-7.15Q96.09-4.85 97.94-3.85 99.79-2.85 101.94-2.85L101.94-2.85Q104.29-2.85 106.24-3.83 108.19-4.8 109.74-6.5L109.74-6.5 111.34-5.3Q109.59-2.9 107.09-1.2 104.59 0.5 100.64 0.5L100.64 0.5Q97.19 0.5 94.54-0.98 91.89-2.45 90.49-5.3L90.49-5.3Q89.74-6.85 89.39-8.75 89.04-10.65 89.04-12.8L89.04-12.8Q89.04-19.8 92.27-23.65 95.49-27.5 101.04-27.5L101.04-27.5Q106.14-27.5 108.92-24.33 111.69-21.15 111.69-15.55L111.69-15.55Q111.69-15.05 111.67-14.63 111.64-14.2 111.54-13.2ZM100.74-24.8L100.74-24.8Q94.74-24.8 94.14-15.65L94.14-15.65 106.64-15.65 106.64-17.3Q106.64-20.9 105.12-22.85 103.59-24.8 100.74-24.8ZM128.99-27.5L128.99-27.5Q131.89-27.5 134.01-26.53 136.14-25.55 137.31-23.8 138.49-22.05 138.49-19.7L138.49-19.7Q138.49-17.85 137.71-16.85 136.94-15.85 135.39-15.85L135.39-15.85Q133.99-15.85 133.16-16.65 132.34-17.45 132.34-18.8L132.34-18.8Q132.34-20.05 133.01-20.95 133.69-21.85 134.84-22.2L134.84-22.2Q134.09-23.65 132.71-24.3 131.34-24.95 129.29-24.95L129.29-24.95Q125.19-24.95 123.31-22.28 121.44-19.6 121.44-13.95L121.44-13.95Q121.44-11.5 121.76-9.73 122.09-7.95 122.74-6.7L122.74-6.7Q123.74-4.85 125.39-3.85 127.04-2.85 129.29-2.85L129.29-2.85Q131.59-2.85 133.69-3.85 135.79-4.85 137.29-6.7L137.29-6.7 138.79-5.5Q136.79-2.45 134.19-0.98 131.59 0.5 128.09 0.5L128.09 0.5Q124.59 0.5 122.01-0.93 119.44-2.35 117.99-5.1L117.99-5.1Q116.19-8.45 116.19-13.2L116.19-13.2Q116.19-17.55 117.76-20.75 119.34-23.95 122.24-25.73 125.14-27.5 128.99-27.5ZM145.99-24.5L141.14-24.5 141.14-26.3 145.99-27 146.64-33.3 150.84-33.9 150.84-27 157.24-27 157.24-24.5 150.84-24.5 150.84-6.65Q150.84-4.95 150.89-4.33 150.94-3.7 151.09-3.3L151.09-3.3Q151.24-2.95 151.64-2.83 152.04-2.7 152.94-2.7L152.94-2.7 156.44-2.7 156.44-1.25Q154.04-0.35 152.21 0.08 150.39 0.5 149.29 0.5L149.29 0.5Q147.04 0.5 146.39-1.35L146.39-1.35Q146.19-1.95 146.09-2.9 145.99-3.85 145.99-5.7L145.99-5.7 145.99-24.5ZM163.38-3L163.38-24 159.53-24.95 159.53-27 168.23-27 168.23-3 172.08-2.05 172.08 0 159.53 0 159.53-2.05 163.38-3ZM162.68-35.05L162.68-35.05Q162.68-36.5 163.53-37.35 164.38-38.2 165.78-38.2L165.78-38.2Q167.23-38.2 168.08-37.35 168.93-36.5 168.93-35.05L168.93-35.05Q168.93-33.65 168.08-32.8 167.23-31.95 165.78-31.95L165.78-31.95Q164.33-31.95 163.51-32.77 162.68-33.6 162.68-35.05ZM200.13-13.75L200.13-13.75Q200.13-10.5 199.16-7.58 198.18-4.65 196.43-2.75L196.43-2.75Q194.93-1.1 192.73-0.3 190.53 0.5 187.73 0.5L187.73 0.5Q184.98 0.5 182.83-0.28 180.68-1.05 179.18-2.65L179.18-2.65Q177.48-4.5 176.56-7.23 175.63-9.95 175.63-13.15L175.63-13.15Q175.63-16.4 176.58-19.38 177.53-22.35 179.33-24.25L179.33-24.25Q180.93-25.95 183.06-26.73 185.18-27.5 187.93-27.5L187.93-27.5Q190.68-27.5 192.88-26.73 195.08-25.95 196.58-24.35L196.58-24.35Q198.33-22.5 199.23-19.73 200.13-16.95 200.13-13.75ZM180.98-13.7L180.98-13.7Q180.98-10.65 181.46-8.43 181.93-6.2 182.78-4.75L182.78-4.75Q183.63-3.5 184.81-2.8 185.98-2.1 187.88-2.1L187.88-2.1Q191.33-2.1 193.03-4.45L193.03-4.45Q193.93-5.75 194.36-8.05 194.78-10.35 194.78-13.35L194.78-13.35Q194.78-16.35 194.31-18.6 193.83-20.85 192.98-22.25L192.98-22.25Q192.18-23.55 190.96-24.23 189.73-24.9 187.83-24.9L187.83-24.9Q184.33-24.9 182.78-22.6L182.78-22.6Q180.98-19.8 180.98-13.7ZM204.23-2.05L208.08-3 208.08-24 204.23-24.95 204.23-27 211.43-27 212.53-22 212.73-22Q214.23-24.55 216.78-26.03 219.33-27.5 222.23-27.5L222.23-27.5Q226.38-27.5 228.38-24.8L228.38-24.8Q229.38-23.4 229.8-20.88 230.23-18.35 230.23-14.05L230.23-14.05 230.23-3 234.08-2.05 234.08 0 222.03 0 222.03-2.05 225.38-3 225.38-14.15Q225.38-17.4 225.2-19 225.03-20.6 224.58-21.5L224.58-21.5Q223.98-22.7 222.85-23.33 221.73-23.95 220.18-23.95L220.18-23.95Q217.28-23.95 215.18-22.1L215.18-22.1Q213.13-20.25 212.93-16.35L212.93-16.35 212.93-3 216.28-2.05 216.28 0 204.23 0 204.23-2.05Z" opacity="1" transform="matrix(1,0,0,1,0,0)" fill="#ffffff" class="wordmark-text-0" data-fill-palette-color="quaternary" id="text-0"></path></svg></g></svg></g><g transform="matrix(1,0,0,1,0,60.53759415012942)"><svg viewBox="0 0 316.72104 16.584277764286657" height="16.584277764286657" width="316.72104"><g transform="matrix(1,0,0,1,0,0)"><svg width="316.72104" viewBox="1.76 -37.99 739.86 38.75" height="16.584277764286657" data-palette-color="#883d1a"><path d="M19.51 0.73L19.51 0.73Q15.67 0.73 12.5-0.7 9.33-2.12 6.84-4.76 4.35-7.4 3.05-11.01 1.76-14.62 1.76-18.51L1.76-18.51Q1.76-22.51 3.06-26.03 4.37-29.54 6.73-32.14 9.08-34.74 12.34-36.24 15.6-37.74 19.51-37.74L19.51-37.74Q23.44-37.74 26.71-36.24 29.98-34.74 32.32-32.14 34.67-29.54 35.96-26.03 37.26-22.51 37.26-18.51L37.26-18.51Q37.26-14.5 35.95-11 34.64-7.5 32.29-4.88 29.93-2.27 26.67-0.77 23.41 0.73 19.51 0.73ZM19.51-3.81L19.51-3.81Q22.41-3.81 24.77-5 27.12-6.2 28.78-8.22 30.44-10.23 31.35-12.89 32.25-15.55 32.25-18.51L32.25-18.51Q32.25-21.53 31.26-24.35 30.27-27.17 28.5-29.13 26.73-31.08 24.39-32.14 22.05-33.2 19.51-33.2L19.51-33.2Q16.6-33.2 14.23-32.01 11.87-30.81 10.21-28.8 8.54-26.78 7.64-24.11 6.74-21.44 6.74-18.51L6.74-18.51Q6.74-15.09 7.74-12.41 8.74-9.74 10.39-7.97 12.04-6.2 14.32-5 16.6-3.81 19.51-3.81ZM58.08 0L58.08-4.2 61.64-4.2 61.64-15.75Q61.64-18.65 60.17-20.15 58.69-21.66 55.93-21.66L55.93-21.66Q54.34-21.66 52.73-20.9 51.12-20.14 49.68-19.02L49.68-19.02 49.68-4.2 53.24-4.2 53.24 0 41.43 0 41.43-4.2 44.94-4.2 44.94-21.09 41.43-21.09 41.43-25.29 49.48-25.29 49.48-22.31 49.53-22.31Q50.34-23.02 51.25-23.66 52.17-24.29 53.17-24.76 54.17-25.22 55.26-25.49 56.35-25.76 57.54-25.76L57.54-25.76Q59.57-25.76 61.2-25.2 62.84-24.63 63.99-23.49 65.13-22.34 65.76-20.54 66.38-18.75 66.38-16.31L66.38-16.31 66.38-4.2 69.89-4.2 69.89 0 58.08 0ZM97.29-12.06L79.07-12.06Q79.07-10.99 79.23-10.1 79.39-9.2 79.68-8.4L79.68-8.4Q80.59-5.96 82.58-4.72 84.57-3.49 87.08-3.49L87.08-3.49Q89.06-3.49 90.93-4.04 92.79-4.59 94.84-5.76L94.84-5.76 96.67-2.66Q94.18-0.95 91.67-0.12 89.16 0.71 86.45 0.71L86.45 0.71Q83.88 0.71 81.7-0.15 79.51-1 77.94-2.69 76.36-4.37 75.47-6.88 74.58-9.4 74.58-12.74L74.58-12.74Q74.58-15.45 75.34-17.86 76.09-20.26 77.6-22.06 79.1-23.85 81.32-24.9 83.54-25.95 86.49-25.95L86.49-25.95Q89.35-25.95 91.27-25.09 93.18-24.22 94.39-22.79 95.6-21.36 96.22-19.53 96.85-17.7 97.09-15.8L97.09-15.8Q97.21-14.87 97.25-13.92 97.29-12.96 97.29-12.06L97.29-12.06ZM86.18-22.14L86.18-22.14Q84.59-22.14 83.41-21.69 82.22-21.24 81.39-20.4 80.56-19.56 80.06-18.33 79.56-17.11 79.32-15.6L79.32-15.6 92.43-15.6Q92.33-17.02 91.97-18.21 91.62-19.41 90.89-20.29 90.16-21.17 89.01-21.66 87.86-22.14 86.18-22.14ZM101.02 0Q101.02 0 101.02 0ZM128.99-18.51Q128.99-19.53 128.52-20.25 128.04-20.97 127.28-21.42 126.53-21.88 125.6-22.08 124.67-22.29 123.79-22.29L123.79-22.29Q122.82-22.29 122-22.07 121.18-21.85 120.6-21.44 120.01-21.02 119.68-20.42 119.35-19.82 119.35-19.09L119.35-19.09Q119.35-17.82 120.12-17.08 120.89-16.33 122.7-15.7L122.7-15.7 127.55-13.99Q130.68-12.94 132.12-11.13 133.56-9.33 133.56-6.81L133.56-6.81Q133.56-5.13 132.89-3.72 132.22-2.32 130.98-1.33 129.75-0.34 128.02 0.21 126.28 0.76 124.16 0.76L124.16 0.76Q121.21 0.76 119.35-0.2 117.49-1.15 116.49-2.71L116.49-2.71 113.95-2.71 113.95-6.91 119.01-6.91Q119.01-5.86 119.46-5.11 119.91-4.37 120.66-3.91 121.4-3.44 122.34-3.22 123.28-3 124.26-3L124.26-3Q125.21-3 126.09-3.23 126.97-3.47 127.64-3.92 128.31-4.37 128.7-5 129.09-5.64 129.09-6.45L129.09-6.45Q129.09-7.67 128.3-8.52 127.5-9.38 125.6-10.06L125.6-10.06 120.77-11.87Q117.81-12.92 116.38-14.54 114.96-16.16 114.96-18.6L114.96-18.6Q114.96-20.21 115.55-21.58 116.15-22.95 117.29-23.94 118.42-24.93 120.06-25.49 121.69-26.05 123.79-26.05L123.79-26.05Q126.5-26.05 128.33-25.29 130.17-24.54 131.63-22.71L131.63-22.71 134-22.71 134-18.51 128.99-18.51ZM138.29-12.65L138.29-12.65Q138.32-15.65 139.26-18.12 140.2-20.58 141.88-22.35 143.57-24.12 145.89-25.07 148.21-26.03 150.99-26.03L150.99-26.03Q153.8-26.03 156.13-25.07 158.46-24.12 160.12-22.38 161.78-20.63 162.71-18.16 163.63-15.7 163.63-12.7L163.63-12.7Q163.63-9.74 162.71-7.26 161.78-4.79 160.12-3 158.46-1.22 156.13-0.23 153.8 0.76 150.99 0.76L150.99 0.76Q148.13 0.76 145.81-0.22 143.49-1.2 141.83-2.97 140.17-4.74 139.25-7.2 138.32-9.67 138.29-12.65ZM143.1-12.65L143.1-12.65Q143.1-10.47 143.73-8.72 144.35-6.96 145.43-5.73 146.52-4.49 147.95-3.82 149.38-3.15 150.99-3.15L150.99-3.15Q152.67-3.15 154.13-3.81 155.58-4.47 156.65-5.7 157.73-6.93 158.34-8.69 158.95-10.45 158.95-12.65L158.95-12.65Q158.95-14.94 158.34-16.72 157.73-18.51 156.66-19.7 155.6-20.9 154.14-21.51 152.67-22.12 150.99-22.12L150.99-22.12Q149.38-22.12 147.95-21.51 146.52-20.9 145.43-19.7 144.35-18.51 143.73-16.72 143.1-14.94 143.1-12.65ZM176.89-29.39L176.89-25.29 182.75-25.29 182.75-21.61 176.89-21.61 176.89-4.2 180.84-4.2 180.84 0 168.54 0 168.54-4.2 172.35-4.2 172.35-21.61 168.17-21.61 168.17-25.29 172.35-25.29 172.35-29.25Q172.4-31.45 172.98-33.08 173.57-34.72 174.64-35.82 175.72-36.91 177.23-37.45 178.74-37.99 180.6-37.99L180.6-37.99Q181.89-37.99 182.92-37.87 183.94-37.74 184.75-37.54 185.56-37.33 186.18-37.08 186.8-36.84 187.29-36.6L187.29-36.6 185.9-33.35Q185.12-33.76 183.86-34.06 182.6-34.35 181.24-34.35L181.24-34.35Q179.21-34.35 178.05-33.09 176.89-31.84 176.89-29.39L176.89-29.39ZM194.05-33.45L194.05-25.29 199.98-25.29 199.98-21.61 194-21.61 193.93-7.01Q193.93-5.52 194.27-4.59 194.61-3.66 195.37-3.31 196.13-2.95 197.08-2.95L197.08-2.95Q198.1-2.95 198.88-3.14 199.67-3.32 200.59-3.76L200.59-3.76 201.64-0.71Q200.47-0.1 199.18 0.26 197.88 0.61 196.13 0.61L196.13 0.61Q194.46 0.61 193.23 0.21 192-0.2 191.16-1.15 190.31-2.1 189.9-3.7 189.48-5.3 189.48-7.69L189.48-7.69 189.56-21.61 185.53-21.61 185.53-25.29 189.61-25.29 189.61-31.35 194.05-33.45ZM203.37-21.09L203.37-25.29 211.38-25.29 211.38-21.09 210.21-21.09 214.63-4.96 220.68-25.29 224.49-25.29 230.28-5 234.89-21.09 233.43-21.09 233.43-25.29 241.44-25.29 241.44-21.09 239.26-21.09 232.33 0.39 228.13 0.39 222.39-19.8 216.68 0.39 212.43 0.39 205.55-21.09 203.37-21.09ZM260.23 0L260.23-2.34Q258.79-1 257.05-0.15 255.3 0.71 253.08 0.71L253.08 0.71Q251.22 0.71 249.67 0.12 248.12-0.46 247-1.48 245.88-2.49 245.25-3.83 244.63-5.18 244.63-6.69L244.63-6.69Q244.63-8.3 245.11-9.55 245.58-10.79 246.38-11.71 247.17-12.62 248.23-13.24 249.29-13.87 250.45-14.25 251.61-14.62 252.82-14.78 254.03-14.94 255.13-14.94L255.13-14.94Q256.89-14.94 258.08-14.83 259.28-14.72 260.26-14.53L260.26-14.53 260.28-16.6Q260.28-17.94 259.89-18.93 259.5-19.92 258.79-20.57 258.08-21.22 257.09-21.53 256.11-21.85 254.88-21.85L254.88-21.85Q253.74-21.85 252.69-21.69 251.64-21.53 250.72-21.28 249.81-21.02 249.04-20.69 248.27-20.36 247.73-20L247.73-20 246.24-23.14Q247.15-23.73 248.22-24.23 249.29-24.73 250.48-25.09 251.66-25.44 252.89-25.65 254.13-25.85 255.32-25.85L255.32-25.85Q257.52-25.85 259.28-25.33 261.04-24.8 262.26-23.71 263.48-22.61 264.14-20.91 264.8-19.21 264.8-16.85L264.8-16.85 264.77-4.2 267.58-4.2 267.58 0 260.23 0ZM254.08-3.1L254.08-3.1Q254.98-3.1 255.89-3.32 256.79-3.54 257.59-3.92 258.4-4.3 259.08-4.8 259.77-5.3 260.23-5.83L260.23-5.83 260.26-11.55 254.98-11.55Q253.66-11.55 252.58-11.25 251.49-10.96 250.7-10.4 249.9-9.84 249.46-9.01 249.03-8.18 249.03-7.1L249.03-7.1Q249.03-6.1 249.39-5.36 249.76-4.61 250.43-4.11 251.1-3.61 252.03-3.36 252.96-3.1 254.08-3.1ZM290.89-25.44L290.89-19.95 286.25-19.95 286.25-21.51Q285.45-21.51 284.61-21.2 283.76-20.9 283.03-20.28 282.3-19.65 281.75-18.69 281.2-17.72 280.96-16.41L280.96-16.41 280.96-4.2 285.25-4.2 285.25 0 272.7 0 272.7-4.2 276.2-4.2 276.22-21.09 272.7-21.09 272.7-25.29 280.79-25.29 280.79-21.8Q281.23-22.58 281.77-23.25 282.32-23.93 283-24.43 283.67-24.93 284.48-25.21 285.3-25.49 286.25-25.49L286.25-25.49Q287.52-25.49 288.65-25.49 289.77-25.49 290.89-25.44L290.89-25.44ZM318.65-12.06L300.44-12.06Q300.44-10.99 300.6-10.1 300.75-9.2 301.05-8.4L301.05-8.4Q301.95-5.96 303.94-4.72 305.93-3.49 308.44-3.49L308.44-3.49Q310.42-3.49 312.29-4.04 314.16-4.59 316.21-5.76L316.21-5.76 318.04-2.66Q315.55-0.95 313.03-0.12 310.52 0.71 307.81 0.71L307.81 0.71Q305.25 0.71 303.06-0.15 300.88-1 299.3-2.69 297.73-4.37 296.84-6.88 295.94-9.4 295.94-12.74L295.94-12.74Q295.94-15.45 296.7-17.86 297.46-20.26 298.96-22.06 300.46-23.85 302.68-24.9 304.9-25.95 307.86-25.95L307.86-25.95Q310.71-25.95 312.63-25.09 314.55-24.22 315.76-22.79 316.96-21.36 317.59-19.53 318.21-17.7 318.45-15.8L318.45-15.8Q318.58-14.87 318.61-13.92 318.65-12.96 318.65-12.06L318.65-12.06ZM307.54-22.14L307.54-22.14Q305.95-22.14 304.77-21.69 303.59-21.24 302.76-20.4 301.93-19.56 301.43-18.33 300.92-17.11 300.68-15.6L300.68-15.6 313.79-15.6Q313.69-17.02 313.34-18.21 312.99-19.41 312.25-20.29 311.52-21.17 310.37-21.66 309.23-22.14 307.54-22.14ZM322.38 0Q322.38 0 322.38 0ZM343.08-33.45L343.08-25.29 349.02-25.29 349.02-21.61 343.03-21.61 342.96-7.01Q342.96-5.52 343.3-4.59 343.64-3.66 344.4-3.31 345.16-2.95 346.11-2.95L346.11-2.95Q347.14-2.95 347.92-3.14 348.7-3.32 349.63-3.76L349.63-3.76 350.68-0.71Q349.5-0.1 348.21 0.26 346.92 0.61 345.16 0.61L345.16 0.61Q343.5 0.61 342.26 0.21 341.03-0.2 340.19-1.15 339.35-2.1 338.93-3.7 338.52-5.3 338.52-7.69L338.52-7.69 338.59-21.61 334.56-21.61 334.56-25.29 338.64-25.29 338.64-31.35 343.08-33.45ZM354.02-12.65L354.02-12.65Q354.04-15.65 354.98-18.12 355.92-20.58 357.61-22.35 359.29-24.12 361.61-25.07 363.93-26.03 366.71-26.03L366.71-26.03Q369.52-26.03 371.85-25.07 374.18-24.12 375.84-22.38 377.5-20.63 378.43-18.16 379.36-15.7 379.36-12.7L379.36-12.7Q379.36-9.74 378.43-7.26 377.5-4.79 375.84-3 374.18-1.22 371.85-0.23 369.52 0.76 366.71 0.76L366.71 0.76Q363.86 0.76 361.54-0.22 359.22-1.2 357.56-2.97 355.9-4.74 354.97-7.2 354.04-9.67 354.02-12.65ZM358.83-12.65L358.83-12.65Q358.83-10.47 359.45-8.72 360.07-6.96 361.16-5.73 362.25-4.49 363.67-3.82 365.1-3.15 366.71-3.15L366.71-3.15Q368.4-3.15 369.85-3.81 371.3-4.47 372.38-5.7 373.45-6.93 374.06-8.69 374.67-10.45 374.67-12.65L374.67-12.65Q374.67-14.94 374.06-16.72 373.45-18.51 372.39-19.7 371.33-20.9 369.86-21.51 368.4-22.12 366.71-22.12L366.71-22.12Q365.1-22.12 363.67-21.51 362.25-20.9 361.16-19.7 360.07-18.51 359.45-16.72 358.83-14.94 358.83-12.65ZM381.82 0Q381.82 0 381.82 0ZM402.52-33.45L402.52-25.29 408.46-25.29 408.46-21.61 402.47-21.61 402.4-7.01Q402.4-5.52 402.74-4.59 403.09-3.66 403.84-3.31 404.6-2.95 405.55-2.95L405.55-2.95Q406.58-2.95 407.36-3.14 408.14-3.32 409.07-3.76L409.07-3.76 410.12-0.71Q408.94-0.1 407.65 0.26 406.36 0.61 404.6 0.61L404.6 0.61Q402.94 0.61 401.71 0.21 400.47-0.2 399.63-1.15 398.79-2.1 398.37-3.7 397.96-5.3 397.96-7.69L397.96-7.69 398.03-21.61 394-21.61 394-25.29 398.08-25.29 398.08-31.35 402.52-33.45ZM431.99-25.44L431.99-19.95 427.35-19.95 427.35-21.51Q426.54-21.51 425.7-21.2 424.86-20.9 424.13-20.28 423.4-19.65 422.85-18.69 422.3-17.72 422.05-16.41L422.05-16.41 422.05-4.2 426.35-4.2 426.35 0 413.8 0 413.8-4.2 417.29-4.2 417.32-21.09 413.8-21.09 413.8-25.29 421.88-25.29 421.88-21.8Q422.32-22.58 422.87-23.25 423.42-23.93 424.09-24.43 424.76-24.93 425.58-25.21 426.4-25.49 427.35-25.49L427.35-25.49Q428.62-25.49 429.74-25.49 430.87-25.49 431.99-25.44L431.99-25.44ZM452.1 0L452.1-2.34Q450.66-1 448.92-0.15 447.17 0.71 444.95 0.71L444.95 0.71Q443.09 0.71 441.54 0.12 439.99-0.46 438.87-1.48 437.75-2.49 437.13-3.83 436.5-5.18 436.5-6.69L436.5-6.69Q436.5-8.3 436.98-9.55 437.46-10.79 438.25-11.71 439.04-12.62 440.1-13.24 441.17-13.87 442.33-14.25 443.49-14.62 444.69-14.78 445.9-14.94 447-14.94L447-14.94Q448.76-14.94 449.96-14.83 451.15-14.72 452.13-14.53L452.13-14.53 452.15-16.6Q452.15-17.94 451.76-18.93 451.37-19.92 450.66-20.57 449.96-21.22 448.97-21.53 447.98-21.85 446.76-21.85L446.76-21.85Q445.61-21.85 444.56-21.69 443.51-21.53 442.59-21.28 441.68-21.02 440.91-20.69 440.14-20.36 439.6-20L439.6-20 438.11-23.14Q439.02-23.73 440.09-24.23 441.17-24.73 442.35-25.09 443.53-25.44 444.77-25.65 446-25.85 447.2-25.85L447.2-25.85Q449.39-25.85 451.15-25.33 452.91-24.8 454.13-23.71 455.35-22.61 456.01-20.91 456.67-19.21 456.67-16.85L456.67-16.85 456.64-4.2 459.45-4.2 459.45 0 452.1 0ZM445.95-3.1L445.95-3.1Q446.85-3.1 447.76-3.32 448.66-3.54 449.47-3.92 450.27-4.3 450.96-4.8 451.64-5.3 452.1-5.83L452.1-5.83 452.13-11.55 446.85-11.55Q445.54-11.55 444.45-11.25 443.36-10.96 442.57-10.4 441.78-9.84 441.34-9.01 440.9-8.18 440.9-7.1L440.9-7.1Q440.9-6.1 441.26-5.36 441.63-4.61 442.3-4.11 442.97-3.61 443.9-3.36 444.83-3.1 445.95-3.1ZM487.43-18.55L482.84-18.55Q481.81-20.39 480.24-21.24 478.66-22.09 476.59-22.09L476.59-22.09Q475-22.09 473.61-21.44 472.22-20.78 471.18-19.56 470.14-18.33 469.54-16.59 468.95-14.84 468.95-12.7L468.95-12.7Q468.95-10.57 469.54-8.86 470.14-7.15 471.19-5.94 472.24-4.74 473.62-4.09 475-3.44 476.59-3.44L476.59-3.44Q478.93-3.44 480.67-4.58 482.4-5.71 483.42-7.91L483.42-7.91 487.18-6.05Q486.45-4.49 485.38-3.25 484.3-2 482.95-1.12 481.59-0.24 479.97 0.23 478.35 0.71 476.54 0.71L476.54 0.71Q473.9 0.71 471.67-0.28 469.43-1.27 467.81-3.05 466.19-4.83 465.28-7.3 464.38-9.77 464.38-12.7L464.38-12.7Q464.38-15.63 465.33-18.09 466.29-20.56 467.95-22.33 469.61-24.1 471.83-25.1 474.05-26.1 476.59-26.1L476.59-26.1Q478.98-26.1 481.12-25.27 483.25-24.44 484.86-22.75L484.86-22.75 487.43-22.75 487.43-18.55ZM491.67-33.79L491.67-37.99 500.58-37.99 500.58-33.79 500.54-33.79 500.54-14.89 504.93-14.89 510.94-21.09 509.42-21.09 509.42-25.29 519.02-25.29 519.02-21.09 515.82-21.09 508.13-13.16 516.53-4.2 519.58-4.2 519.58 0 514.23 0 503.88-11.3 500.54-11.3 500.54-4.2 502.64-4.2 502.64 0 491.82 0 491.82-4.2 495.97-4.2 495.97-33.79 491.67-33.79ZM520.82 0Q520.82 0 520.82 0ZM541.52-33.45L541.52-25.29 547.45-25.29 547.45-21.61 541.47-21.61 541.4-7.01Q541.4-5.52 541.74-4.59 542.08-3.66 542.84-3.31 543.6-2.95 544.55-2.95L544.55-2.95Q545.57-2.95 546.36-3.14 547.14-3.32 548.07-3.76L548.07-3.76 549.11-0.71Q547.94-0.1 546.65 0.26 545.36 0.61 543.6 0.61L543.6 0.61Q541.94 0.61 540.7 0.21 539.47-0.2 538.63-1.15 537.79-2.1 537.37-3.7 536.96-5.3 536.96-7.69L536.96-7.69 537.03-21.61 533-21.61 533-25.29 537.08-25.29 537.08-31.35 541.52-33.45ZM553.14-33.79L553.14-37.99 561.15-37.99 561.15-22.51 561.3-22.51Q561.98-23.19 562.87-23.79 563.76-24.39 564.74-24.83 565.71-25.27 566.76-25.51 567.81-25.76 568.96-25.76L568.96-25.76Q570.99-25.76 572.62-25.2 574.26-24.63 575.41-23.49 576.55-22.34 577.18-20.54 577.8-18.75 577.8-16.31L577.8-16.31 577.8-4.2 581.61-4.2 581.61 0 569.6 0 569.6-4.2 573.06-4.2 573.06-15.75Q573.06-18.65 571.59-20.15 570.11-21.66 567.35-21.66L567.35-21.66Q565.79-21.66 564.18-20.91 562.56-20.17 561.15-19.04L561.15-19.04 561.15-4.2 564.81-4.2 564.81 0 552.8 0 552.8-4.2 556.61-4.2 556.61-33.79 553.14-33.79ZM608.36-12.06L590.15-12.06Q590.15-10.99 590.31-10.1 590.47-9.2 590.76-8.4L590.76-8.4Q591.66-5.96 593.65-4.72 595.64-3.49 598.16-3.49L598.16-3.49Q600.14-3.49 602-4.04 603.87-4.59 605.92-5.76L605.92-5.76 607.75-2.66Q605.26-0.95 602.75-0.12 600.23 0.71 597.52 0.71L597.52 0.71Q594.96 0.71 592.77-0.15 590.59-1 589.01-2.69 587.44-4.37 586.55-6.88 585.66-9.4 585.66-12.74L585.66-12.74Q585.66-15.45 586.41-17.86 587.17-20.26 588.67-22.06 590.17-23.85 592.4-24.9 594.62-25.95 597.57-25.95L597.57-25.95Q600.43-25.95 602.34-25.09 604.26-24.22 605.47-22.79 606.68-21.36 607.3-19.53 607.92-17.7 608.17-15.8L608.17-15.8Q608.29-14.87 608.33-13.92 608.36-12.96 608.36-12.06L608.36-12.06ZM597.25-22.14L597.25-22.14Q595.67-22.14 594.48-21.69 593.3-21.24 592.47-20.4 591.64-19.56 591.14-18.33 590.64-17.11 590.39-15.6L590.39-15.6 603.5-15.6Q603.41-17.02 603.05-18.21 602.7-19.41 601.97-20.29 601.23-21.17 600.09-21.66 598.94-22.14 597.25-22.14ZM614.54-21.09L614.54-25.29 622.59-25.29 622.59-22.34 622.64-22.34Q623.47-23.05 624.39-23.67 625.3-24.29 626.3-24.76 627.31-25.22 628.39-25.49 629.48-25.76 630.65-25.76L630.65-25.76Q633.38-25.76 635.36-24.74 637.34-23.73 638.41-21.58L638.41-21.58Q639.34-22.41 640.37-23.18 641.39-23.95 642.5-24.51 643.61-25.07 644.83-25.42 646.06-25.76 647.37-25.76L647.37-25.76Q649.42-25.76 651.06-25.2 652.7-24.63 653.84-23.49 654.99-22.34 655.59-20.54 656.19-18.75 656.19-16.31L656.19-16.31 656.19-4.2 659.7-4.2 659.7 0 647.89 0 647.89-4.2 651.45-4.2 651.45-15.75Q651.45-18.65 649.99-20.15 648.52-21.66 645.76-21.66L645.76-21.66Q644.13-21.66 642.42-20.87 640.71-20.09 639.49-18.9L639.49-18.9 639.49-4.2 642.98-4.2 642.98 0 631.19 0 631.19-4.2 634.75-4.2 634.75-15.75Q634.75-18.65 633.27-20.15 631.8-21.66 629.04-21.66L629.04-21.66Q627.45-21.66 625.84-20.9 624.23-20.14 622.79-19.02L622.79-19.02 622.79-4.2 626.35-4.2 626.35 0 614.54 0 614.54-4.2 618.05-4.2 618.05-21.09 614.54-21.09ZM662.14 0Q662.14 0 662.14 0ZM690.39 0L690.39-2.34Q688.95-1 687.2-0.15 685.45 0.71 683.23 0.71L683.23 0.71Q681.38 0.71 679.83 0.12 678.28-0.46 677.15-1.48 676.03-2.49 675.41-3.83 674.79-5.18 674.79-6.69L674.79-6.69Q674.79-8.3 675.26-9.55 675.74-10.79 676.53-11.71 677.33-12.62 678.39-13.24 679.45-13.87 680.61-14.25 681.77-14.62 682.98-14.78 684.19-14.94 685.28-14.94L685.28-14.94Q687.04-14.94 688.24-14.83 689.43-14.72 690.41-14.53L690.41-14.53 690.44-16.6Q690.44-17.94 690.04-18.93 689.65-19.92 688.95-20.57 688.24-21.22 687.25-21.53 686.26-21.85 685.04-21.85L685.04-21.85Q683.89-21.85 682.84-21.69 681.79-21.53 680.88-21.28 679.96-21.02 679.19-20.69 678.42-20.36 677.89-20L677.89-20 676.4-23.14Q677.3-23.73 678.37-24.23 679.45-24.73 680.63-25.09 681.82-25.44 683.05-25.65 684.28-25.85 685.48-25.85L685.48-25.85Q687.68-25.85 689.43-25.33 691.19-24.8 692.41-23.71 693.63-22.61 694.29-20.91 694.95-19.21 694.95-16.85L694.95-16.85 694.93-4.2 697.74-4.2 697.74 0 690.39 0ZM684.23-3.1L684.23-3.1Q685.14-3.1 686.04-3.32 686.94-3.54 687.75-3.92 688.56-4.3 689.24-4.8 689.92-5.3 690.39-5.83L690.39-5.83 690.41-11.55 685.14-11.55Q683.82-11.55 682.73-11.25 681.65-10.96 680.85-10.4 680.06-9.84 679.62-9.01 679.18-8.18 679.18-7.1L679.18-7.1Q679.18-6.1 679.55-5.36 679.91-4.61 680.58-4.11 681.26-3.61 682.18-3.36 683.11-3.1 684.23-3.1ZM702.66-33.79L702.66-37.99 710.87-37.99 710.87-4.2 714.68-4.2 714.68 0 702.66 0 702.66-4.2 706.33-4.2 706.33-33.79 702.66-33.79ZM718.92-33.79L718.92-37.99 727.12-37.99 727.12-4.2 730.93-4.2 730.93 0 718.92 0 718.92-4.2 722.58-4.2 722.58-33.79 718.92-33.79ZM735.28-2.95L735.28-2.95Q735.28-3.59 735.53-4.16 735.79-4.74 736.23-5.16 736.67-5.59 737.24-5.85 737.82-6.1 738.47-6.1L738.47-6.1Q739.11-6.1 739.68-5.85 740.26-5.59 740.68-5.16 741.11-4.74 741.37-4.16 741.62-3.59 741.62-2.95L741.62-2.95Q741.62-2.29 741.37-1.71 741.11-1.12 740.68-0.67 740.26-0.22 739.68 0.04 739.11 0.29 738.47 0.29L738.47 0.29Q737.82 0.29 737.24 0.04 736.67-0.22 736.23-0.67 735.79-1.12 735.53-1.71 735.28-2.29 735.28-2.95Z" opacity="1" transform="matrix(1,0,0,1,0,0)" fill="#ffffff" class="slogan-text-1" data-fill-palette-color="quaternary" id="text-1"></path></svg></g></svg></g></svg></g></svg></g><g></g></svg></g><defs></defs></svg><rect width="356.12052" height="116.52135191441607" fill="none" stroke="none" visibility="hidden"></rect></g></svg></g></svg>